<?xml version="1.0" encoding="UTF-8"?>
<!DOCTYPE svg PUBLIC "-//W3C//DTD SVG 1.1//EN" "http://www.w3.org/Graphics/SVG/1.1/DTD/svg11.dtd">
<!-- Creator: CorelDRAW X8 -->
<svg xmlns="http://www.w3.org/2000/svg" xml:space="preserve" width="297mm" height="420mm" version="1.1" style="shape-rendering:geometricPrecision; text-rendering:geometricPrecision; image-rendering:optimizeQuality; fill-rule:evenodd; clip-rule:evenodd"
viewBox="0 0 29700 42000"
 xmlns:xlink="http://www.w3.org/1999/xlink">
 <defs>
  <style type="text/css">
   <![CDATA[
    .fil5 {fill:none}
    .fil3 {fill:black}
    .fil2 {fill:red}
    .fil4 {fill:white}
    .fil1 {fill:black;fill-rule:nonzero}
    .fil0 {fill:red;fill-rule:nonzero}
   ]]>
  </style>
 </defs>
 <g id="Camada_x0020_1">
  <metadata id="CorelCorpID_0Corel-Layer"/>
  <g id="_325617888">
   <path class="fil0" d="M5027 34680l-374 -535c-16,1 -39,2 -71,2l-413 0 0 533 -339 0 0 -1829 752 0c159,0 297,26 415,78 117,52 207,127 270,225 63,98 94,213 94,348 0,137 -33,256 -100,355 -68,99 -164,173 -289,222l421 601 -366 0zm-8 -1178c0,-117 -39,-207 -115,-270 -77,-62 -189,-94 -337,-94l-398 0 0 729 398 0c148,0 260,-31 337,-95 76,-64 115,-154 115,-270zm2093 893l0 285 -1372 0 0 -1829 1336 0 0 285 -996 0 0 475 883 0 0 280 -883 0 0 504 1032 0zm1218 311c-184,0 -351,-40 -500,-121 -149,-81 -266,-193 -350,-336 -85,-143 -127,-304 -127,-483 0,-180 43,-341 128,-484 85,-143 202,-255 351,-336 149,-81 316,-121 501,-121 150,0 287,26 410,78 124,52 229,128 314,227l-220 207c-132,-143 -295,-214 -488,-214 -126,0 -238,27 -338,82 -99,55 -176,131 -232,229 -56,97 -84,208 -84,332 0,123 28,234 84,331 56,98 133,174 232,229 100,55 212,83 338,83 193,0 356,-73 488,-217l220 209c-85,99 -190,175 -315,227 -125,52 -262,78 -412,78zm1869 0c-186,0 -354,-40 -504,-121 -150,-81 -268,-193 -353,-337 -86,-144 -128,-305 -128,-482 0,-178 42,-339 128,-483 85,-143 203,-256 353,-337 150,-81 318,-121 504,-121 187,0 355,40 505,121 149,81 267,193 352,336 86,143 128,304 128,484 0,179 -42,340 -128,483 -85,143 -203,255 -352,336 -150,81 -318,121 -505,121zm0 -297c122,0 232,-28 329,-83 98,-55 175,-131 230,-230 56,-98 84,-208 84,-330 0,-122 -28,-233 -84,-331 -55,-99 -132,-175 -230,-230 -97,-55 -207,-82 -329,-82 -122,0 -232,27 -329,82 -98,55 -174,131 -230,230 -56,98 -84,209 -84,331 0,122 28,232 84,330 56,99 132,175 230,230 97,55 207,83 329,83zm2543 271l-373 -535c-16,1 -40,2 -71,2l-413 0 0 533 -340 0 0 -1829 753 0c159,0 297,26 414,78 118,52 208,127 271,225 62,98 94,213 94,348 0,137 -34,256 -101,355 -67,99 -163,173 -289,222l421 601 -366 0zm-8 -1178c0,-117 -38,-207 -115,-270 -76,-62 -189,-94 -337,-94l-397 0 0 729 397 0c148,0 261,-31 337,-95 77,-64 115,-154 115,-270zm722 -651l800 0c195,0 368,38 520,113 151,76 269,183 353,322 83,138 125,298 125,480 0,181 -42,341 -125,479 -84,139 -202,246 -353,322 -152,75 -325,113 -520,113l-800 0 0 -1829zm784 1542c134,0 252,-26 354,-77 102,-52 180,-125 235,-220 55,-95 83,-205 83,-330 0,-126 -28,-236 -83,-331 -55,-95 -133,-168 -235,-220 -102,-51 -220,-77 -354,-77l-444 0 0 1255 444 0z"/>
   <path class="fil1" d="M15526 33818l719 0 0 272 -719 0 0 -272zm1861 -967c158,0 296,26 414,78 118,52 208,127 271,225 62,98 94,213 94,348 0,132 -32,247 -94,346 -63,98 -153,174 -271,226 -118,52 -256,78 -414,78l-413 0 0 528 -340 0 0 -1829 753 0zm-16 1014c148,0 261,-32 337,-94 77,-63 115,-153 115,-269 0,-117 -38,-207 -115,-270 -76,-62 -189,-94 -337,-94l-397 0 0 727 397 0zm1134 -1014l340 0 0 1542 957 0 0 287 -1297 0 0 -1829zm2766 1406l-915 0 -180 423 -351 0 824 -1829 334 0 826 1829 -355 0 -183 -423zm-113 -267l-345 -799 -342 799 687 0zm1563 45l0 645 -339 0 0 -640 -719 -1189 363 0 536 891 541 -891 335 0 -717 1184zm2285 360l0 285 -1372 0 0 -1829 1335 0 0 285 -996 0 0 475 884 0 0 280 -884 0 0 504 1033 0zm1576 285l-374 -535c-16,1 -39,2 -71,2l-412 0 0 533 -340 0 0 -1829 752 0c159,0 297,26 415,78 117,52 208,127 270,225 63,98 94,213 94,348 0,137 -33,256 -100,355 -67,99 -164,173 -289,222l421 601 -366 0zm-8 -1178c0,-117 -38,-207 -115,-270 -77,-62 -189,-94 -337,-94l-397 0 0 729 397 0c148,0 260,-31 337,-95 77,-64 115,-154 115,-270z"/>
  </g>
  <g id="_323854368">
   <path class="fil2" d="M10498 20857l0 -6513c0,-1659 885,-3191 2321,-4021 1436,-829 3206,-829 4642,0 1437,830 2322,2362 2322,4021l0 6513c0,2564 -2079,4642 -4643,4642 -2564,0 -4642,-2078 -4642,-4642zm-1895 0l0 -3256 948 0 0 3256c0,3087 2502,5590 5589,5590 3087,0 5590,-2503 5590,-5590l0 -3256 947 0 0 3256c0,3426 -2646,6271 -6063,6520l0 17 0 2450c6401,-249 11515,-5517 11515,-11980 0,-6621 -5368,-11988 -11989,-11989 -6621,0 -11988,5368 -11988,11989 0,6462 5113,11731 11515,11980l0 -2450 0 -17c-3418,-249 -6064,-3094 -6064,-6520z"/>
   <path class="fil3" d="M11800 20857l0 -6513c0,-1193 637,-2296 1670,-2893 1034,-596 2307,-596 3340,0 1034,597 1670,1700 1670,2893l0 6513c0,1845 -1495,3340 -3340,3340 -1844,0 -3340,-1495 -3340,-3340zm7983 0l0 -6513c0,-1659 -885,-3191 -2322,-4021 -1436,-829 -3206,-829 -4642,0 -1436,830 -2321,2362 -2321,4021l0 6513c0,2564 2078,4642 4642,4642 2564,0 4643,-2078 4643,-4642z"/>
   <path class="fil4" d="M20730 20857c0,3087 -2503,5590 -5590,5590 -3087,0 -5589,-2503 -5589,-5590l0 -3256 -948 0 0 3256c0,3426 2646,6271 6064,6520l0 17 0 2450c157,6 315,9 473,9 159,0 317,-3 474,-9l0 -2450 0 -17c3417,-249 6063,-3094 6063,-6520l0 -3256 -947 0 0 3256z"/>
   <path class="fil4" d="M18480 20857l0 -6513c0,-1193 -636,-2296 -1670,-2893 -1033,-596 -2306,-596 -3340,0 -1033,597 -1670,1700 -1670,2893l0 6513c0,1845 1496,3340 3340,3340 1845,0 3340,-1495 3340,-3340z"/>
  </g>
  <g id="_779484320">
   <path class="fil5" d="M11800 20857c0,1845 1496,3340 3340,3340 1845,0 3340,-1495 3340,-3340"/>
   <path class="fil5" d="M10498 20857c0,2564 2078,4642 4642,4642 2564,0 4643,-2078 4643,-4642"/>
   <path class="fil5" d="M9551 20857c0,3087 2502,5590 5589,5590 3087,0 5590,-2503 5590,-5590"/>
   <path class="fil5" d="M15614 27377c3417,-249 6063,-3094 6063,-6520"/>
   <path class="fil5" d="M8603 20857c0,3426 2646,6271 6064,6520"/>
   <path class="fil5" d="M18480 14344c0,-1193 -636,-2296 -1670,-2893 -1033,-596 -2306,-596 -3340,0 -1033,597 -1670,1700 -1670,2893"/>
   <path class="fil5" d="M19783 14344c0,-1659 -885,-3191 -2322,-4021 -1436,-829 -3206,-829 -4642,0 -1436,830 -2321,2362 -2321,4021"/>
   <line class="fil5" x1="18480" y1="14344" x2="18480" y2= "20857" />
   <line class="fil5" x1="19783" y1="14344" x2="19783" y2= "20857" />
   <line class="fil5" x1="11800" y1="14344" x2="11800" y2= "20857" />
   <line class="fil5" x1="10498" y1="14344" x2="10498" y2= "20857" />
   <polyline class="fil5" points="14667,27377 14667,27394 14667,29853 "/>
   <polyline class="fil5" points="15614,27377 15614,27394 15614,29853 "/>
   <line class="fil5" x1="9551" y1="17601" x2="8603" y2= "17601" />
   <line class="fil5" x1="20730" y1="17601" x2="21677" y2= "17601" />
   <line class="fil5" x1="15614" y1="29853" x2="14667" y2= "29853" />
   <line class="fil5" x1="8603" y1="20857" x2="8603" y2= "17601" />
   <line class="fil5" x1="9551" y1="20857" x2="9551" y2= "17601" />
   <line class="fil5" x1="20730" y1="20857" x2="20730" y2= "17601" />
   <line class="fil5" x1="21677" y1="20857" x2="21677" y2= "17601" />
   <path class="fil5" d="M27067 16444c0,-6621 -5367,-11989 -11989,-11989 -6621,0 -11988,5368 -11988,11989 0,6621 5367,11988 11988,11988 6621,0 11989,-5367 11989,-11988z"/>
  </g>
 </g>
</svg>
