<?xml version="1.0" encoding="UTF-8"?>
<!DOCTYPE svg PUBLIC "-//W3C//DTD SVG 1.1//EN" "http://www.w3.org/Graphics/SVG/1.1/DTD/svg11.dtd">
<!-- Creator: CorelDRAW X8 -->
<svg xmlns="http://www.w3.org/2000/svg" xml:space="preserve" width="420mm" height="93.1332mm" version="1.1" style="shape-rendering:geometricPrecision; text-rendering:geometricPrecision; image-rendering:optimizeQuality; fill-rule:evenodd; clip-rule:evenodd"
viewBox="0 0 42000 9313"
 xmlns:xlink="http://www.w3.org/1999/xlink">
 <defs>
  <style type="text/css">
   <![CDATA[
    .fil5 {fill:none}
    .fil3 {fill:black}
    .fil2 {fill:red}
    .fil4 {fill:white}
    .fil1 {fill:black;fill-rule:nonzero}
    .fil0 {fill:red;fill-rule:nonzero}
   ]]>
  </style>
 </defs>
 <g id="Camada_x0020_1">
  <metadata id="CorelCorpID_0Corel-Layer"/>
  <g id="_780756288">
   <path class="fil0" d="M11899 6328l-498 -713c-21,2 -52,3 -94,3l-549 0 0 710 -452 0 0 -2435 1001 0c211,0 395,35 552,105 156,69 276,169 360,299 83,130 125,284 125,462 0,183 -45,341 -134,473 -89,132 -217,231 -384,296l560 800 -487 0zm-11 -1569c0,-155 -51,-275 -153,-358 -102,-83 -251,-125 -448,-125l-529 0 0 970 529 0c197,0 346,-42 448,-127 102,-84 153,-204 153,-360zm2786 1190l0 379 -1826 0 0 -2435 1777 0 0 379 -1325 0 0 633 1176 0 0 372 -1176 0 0 672 1374 0zm1621 414c-246,0 -468,-54 -666,-162 -199,-108 -354,-257 -466,-447 -113,-190 -169,-405 -169,-644 0,-238 57,-453 170,-643 114,-190 270,-339 468,-447 198,-108 420,-162 666,-162 200,0 382,35 546,105 165,69 304,170 418,302l-293 275c-176,-190 -393,-285 -650,-285 -167,0 -316,36 -449,109 -132,74 -235,175 -309,305 -74,130 -111,277 -111,441 0,165 37,312 111,442 74,130 177,231 309,305 133,73 282,109 449,109 257,0 474,-96 650,-289l293 279c-114,132 -254,233 -419,302 -166,70 -349,105 -548,105zm2486 0c-248,0 -471,-54 -671,-162 -199,-108 -356,-258 -469,-449 -114,-191 -171,-405 -171,-642 0,-236 57,-450 171,-641 113,-191 270,-341 469,-449 200,-108 423,-162 671,-162 249,0 472,54 672,162 199,108 356,257 469,447 114,190 171,405 171,643 0,239 -57,454 -171,644 -113,190 -270,339 -469,447 -200,108 -423,162 -672,162zm0 -397c163,0 309,-36 439,-109 130,-74 232,-176 306,-307 74,-131 111,-277 111,-440 0,-162 -37,-308 -111,-439 -74,-131 -176,-233 -306,-307 -130,-73 -276,-109 -439,-109 -162,0 -308,36 -438,109 -130,74 -232,176 -306,307 -74,131 -111,277 -111,439 0,163 37,309 111,440 74,131 176,233 306,307 130,73 276,109 438,109zm3385 362l-498 -713c-21,2 -52,3 -94,3l-549 0 0 710 -452 0 0 -2435 1001 0c211,0 395,35 552,105 156,69 276,169 359,299 84,130 126,284 126,462 0,183 -45,341 -134,473 -89,132 -218,231 -385,296l560 800 -486 0zm-11 -1569c0,-155 -51,-275 -153,-358 -102,-83 -252,-125 -449,-125l-528 0 0 970 528 0c197,0 347,-42 449,-127 102,-84 153,-204 153,-360zm960 -866l1064 0c260,0 491,51 692,152 202,100 359,243 470,427 111,185 167,397 167,638 0,242 -56,454 -167,639 -111,184 -268,327 -470,427 -201,101 -432,152 -692,152l-1064 0 0 -2435zm1043 2052c179,0 336,-34 472,-102 135,-69 240,-166 313,-293 73,-126 109,-273 109,-440 0,-166 -36,-313 -109,-439 -73,-127 -178,-224 -313,-293 -136,-68 -293,-102 -472,-102l-591 0 0 1669 591 0z"/>
   <path class="fil1" d="M25870 5180l956 0 0 362 -956 0 0 -362zm2476 -1287c211,0 395,35 551,105 157,69 277,169 360,299 84,130 125,284 125,462 0,176 -41,330 -125,461 -83,131 -203,231 -360,301 -156,69 -340,104 -551,104l-550 0 0 703 -452 0 0 -2435 1002 0zm-21 1350c197,0 347,-42 449,-126 102,-83 153,-202 153,-358 0,-155 -51,-275 -153,-358 -102,-83 -252,-125 -449,-125l-529 0 0 967 529 0zm1509 -1350l453 0 0 2052 1272 0 0 383 -1725 0 0 -2435zm3680 1871l-1217 0 -240 564 -466 0 1095 -2435 445 0 1099 2435 -473 0 -243 -564zm-150 -354l-459 -1065 -455 1065 914 0zm2080 59l0 859 -452 0 0 -852 -956 -1583 483 0 713 1186 720 -1186 445 0 -953 1576zm3040 480l0 379 -1826 0 0 -2435 1777 0 0 379 -1325 0 0 633 1176 0 0 372 -1176 0 0 672 1374 0zm2097 379l-497 -713c-21,2 -52,3 -94,3l-550 0 0 710 -452 0 0 -2435 1002 0c211,0 395,35 551,105 157,69 277,169 360,299 84,130 125,284 125,462 0,183 -44,341 -134,473 -89,132 -217,231 -384,296l560 800 -487 0zm-10 -1569c0,-155 -51,-275 -153,-358 -102,-83 -252,-125 -449,-125l-529 0 0 970 529 0c197,0 347,-42 449,-127 102,-84 153,-204 153,-360z"/>
  </g>
  <g id="_780745008">
   <path class="fil2" d="M3180 6057l0 -2177c0,-555 296,-1067 776,-1344 480,-277 1071,-277 1551,0 480,277 776,789 776,1344l0 2177c0,857 -695,1551 -1552,1551 -856,0 -1551,-694 -1551,-1551zm-633 0l0 -1089 316 0 0 1089c0,1031 837,1868 1868,1868 1032,0 1869,-837 1869,-1868l0 -1089 316 0 0 1089c0,1145 -884,2096 -2026,2179l0 5 0 819c2139,-83 3848,-1844 3848,-4004 0,-2213 -1794,-4007 -4007,-4007 -2212,0 -4006,1794 -4007,4007 0,2160 1710,3921 3849,4004l0 -819 0 -5c-1142,-83 -2026,-1034 -2026,-2179z"/>
   <path class="fil3" d="M3615 6057l0 -2177c0,-399 213,-768 558,-967 346,-199 771,-199 1117,0 345,199 558,568 558,967l0 2177c0,616 -500,1116 -1117,1116 -616,0 -1116,-500 -1116,-1116zm2668 0l0 -2177c0,-555 -296,-1067 -776,-1344 -480,-277 -1071,-277 -1551,0 -480,277 -776,789 -776,1344l0 2177c0,857 695,1551 1551,1551 857,0 1552,-694 1552,-1551z"/>
   <path class="fil4" d="M6600 6057c0,1031 -837,1868 -1869,1868 -1031,0 -1868,-837 -1868,-1868l0 -1089 -316 0 0 1089c0,1145 884,2096 2026,2179l0 5 0 819c53,2 105,3 158,3 53,0 106,-1 159,-3l0 -819 0 -5c1142,-83 2026,-1034 2026,-2179l0 -1089 -316 0 0 1089z"/>
   <path class="fil4" d="M5848 6057l0 -2177c0,-399 -213,-768 -558,-967 -346,-199 -771,-199 -1117,0 -345,199 -558,568 -558,967l0 2177c0,616 500,1116 1116,1116 617,0 1117,-500 1117,-1116z"/>
  </g>
  <g id="_780756144">
   <path class="fil5" d="M3615 6057c0,616 500,1116 1116,1116 617,0 1117,-500 1117,-1116"/>
   <path class="fil5" d="M3180 6057c0,857 695,1551 1551,1551 857,0 1552,-694 1552,-1551"/>
   <path class="fil5" d="M2863 6057c0,1031 837,1868 1868,1868 1032,0 1869,-837 1869,-1868"/>
   <path class="fil5" d="M4890 8236c1142,-83 2026,-1034 2026,-2179"/>
   <path class="fil5" d="M2547 6057c0,1145 884,2096 2026,2179"/>
   <path class="fil5" d="M5848 3880c0,-399 -213,-768 -558,-967 -346,-199 -771,-199 -1117,0 -345,199 -558,568 -558,967"/>
   <path class="fil5" d="M6283 3880c0,-555 -296,-1067 -776,-1344 -480,-277 -1071,-277 -1551,0 -480,277 -776,789 -776,1344"/>
   <line class="fil5" x1="5848" y1="3880" x2="5848" y2= "6057" />
   <line class="fil5" x1="6283" y1="3880" x2="6283" y2= "6057" />
   <line class="fil5" x1="3615" y1="3880" x2="3615" y2= "6057" />
   <line class="fil5" x1="3180" y1="3880" x2="3180" y2= "6057" />
   <polyline class="fil5" points="4573,8236 4573,8241 4573,9063 "/>
   <polyline class="fil5" points="4890,8236 4890,8241 4890,9063 "/>
   <line class="fil5" x1="2863" y1="4968" x2="2547" y2= "4968" />
   <line class="fil5" x1="6600" y1="4968" x2="6916" y2= "4968" />
   <line class="fil5" x1="4890" y1="9063" x2="4573" y2= "9063" />
   <line class="fil5" x1="2547" y1="6057" x2="2547" y2= "4968" />
   <line class="fil5" x1="2863" y1="6057" x2="2863" y2= "4968" />
   <line class="fil5" x1="6600" y1="6057" x2="6600" y2= "4968" />
   <line class="fil5" x1="6916" y1="6057" x2="6916" y2= "4968" />
   <path class="fil5" d="M8718 4582c0,-2213 -1794,-4007 -4007,-4007 -2213,0 -4007,1794 -4007,4007 0,2213 1794,4007 4007,4007 2213,0 4007,-1794 4007,-4007z"/>
  </g>
 </g>
</svg>
