<?xml version="1.0" encoding="UTF-8"?>
<!DOCTYPE svg PUBLIC "-//W3C//DTD SVG 1.1//EN" "http://www.w3.org/Graphics/SVG/1.1/DTD/svg11.dtd">
<!-- Creator: CorelDRAW X8 -->
<svg xmlns="http://www.w3.org/2000/svg" xml:space="preserve" width="297mm" height="420mm" version="1.1" style="shape-rendering:geometricPrecision; text-rendering:geometricPrecision; image-rendering:optimizeQuality; fill-rule:evenodd; clip-rule:evenodd"
viewBox="0 0 29700 42000"
 xmlns:xlink="http://www.w3.org/1999/xlink">
 <defs>
  <style type="text/css">
   <![CDATA[
    .fil3 {fill:none}
    .fil1 {fill:black}
    .fil0 {fill:red}
    .fil2 {fill:white}
   ]]>
  </style>
 </defs>
 <g id="Camada_x0020_1">
  <metadata id="CorelCorpID_0Corel-Layer"/>
  <g id="_326415088">
   <path class="fil0" d="M10776 22289l0 -5961c0,-1517 810,-2920 2124,-3679 1315,-759 2934,-759 4249,0 1315,759 2124,2162 2124,3679l0 5961c0,2347 -1902,4249 -4248,4249 -2347,0 -4249,-1902 -4249,-4249zm-1734 0l0 -2980 867 0 0 2980c0,2825 2290,5116 5116,5116 2825,0 5115,-2291 5115,-5116l0 -2980 867 0 0 2980c0,3136 -2421,5739 -5549,5967l0 15 0 2242c5859,-227 10538,-5049 10538,-10963 0,-6060 -4912,-10972 -10971,-10972 -6060,0 -10972,4912 -10972,10972 0,5914 4680,10736 10538,10963l0 -2242 0 -15c-3127,-228 -5549,-2831 -5549,-5967z"/>
   <path class="fil1" d="M11968 22289l0 -5961c0,-1092 582,-2101 1528,-2647 946,-546 2111,-546 3057,0 946,546 1528,1555 1528,2647l0 5961c0,1688 -1368,3057 -3056,3057 -1689,0 -3057,-1369 -3057,-3057zm7305 0l0 -5961c0,-1517 -809,-2920 -2124,-3679 -1315,-759 -2934,-759 -4249,0 -1314,759 -2124,2162 -2124,3679l0 5961c0,2347 1902,4249 4249,4249 2346,0 4248,-1902 4248,-4249z"/>
   <path class="fil2" d="M20140 22289c0,2825 -2290,5116 -5115,5116 -2826,0 -5116,-2291 -5116,-5116l0 -2980 -867 0 0 2980c0,3136 2422,5739 5549,5967l0 15 0 2242c144,6 288,9 434,9 145,0 289,-3 433,-9l0 -2242 0 -15c3128,-228 5549,-2831 5549,-5967l0 -2980 -867 0 0 2980z"/>
   <path class="fil2" d="M18081 22289l0 -5961c0,-1092 -582,-2101 -1528,-2647 -946,-546 -2111,-546 -3057,0 -946,546 -1528,1555 -1528,2647l0 5961c0,1688 1368,3057 3057,3057 1688,0 3056,-1369 3056,-3057z"/>
  </g>
  <g id="_772812776">
   <path class="fil3" d="M11968 22289c0,1688 1368,3057 3057,3057 1688,0 3056,-1369 3056,-3057"/>
   <path class="fil3" d="M10776 22289c0,2347 1902,4249 4249,4249 2346,0 4248,-1902 4248,-4249"/>
   <path class="fil3" d="M9909 22289c0,2825 2290,5116 5116,5116 2825,0 5115,-2291 5115,-5116"/>
   <path class="fil3" d="M15458 28256c3128,-228 5549,-2831 5549,-5967"/>
   <path class="fil3" d="M9042 22289c0,3136 2422,5739 5549,5967"/>
   <path class="fil3" d="M18081 16328c0,-1092 -582,-2101 -1528,-2647 -946,-546 -2111,-546 -3057,0 -946,546 -1528,1555 -1528,2647"/>
   <path class="fil3" d="M19273 16328c0,-1517 -809,-2920 -2124,-3679 -1315,-759 -2934,-759 -4249,0 -1314,759 -2124,2162 -2124,3679"/>
   <line class="fil3" x1="18081" y1="16328" x2="18081" y2= "22289" />
   <line class="fil3" x1="19273" y1="16328" x2="19273" y2= "22289" />
   <line class="fil3" x1="11968" y1="16328" x2="11968" y2= "22289" />
   <line class="fil3" x1="10776" y1="16328" x2="10776" y2= "22289" />
   <polyline class="fil3" points="14591,28256 14591,28271 14591,30522 "/>
   <polyline class="fil3" points="15458,28256 15458,28271 15458,30522 "/>
   <line class="fil3" x1="9909" y1="19309" x2="9042" y2= "19309" />
   <line class="fil3" x1="20140" y1="19309" x2="21007" y2= "19309" />
   <line class="fil3" x1="15458" y1="30522" x2="14591" y2= "30522" />
   <line class="fil3" x1="9042" y1="22289" x2="9042" y2= "19309" />
   <line class="fil3" x1="9909" y1="22289" x2="9909" y2= "19309" />
   <line class="fil3" x1="20140" y1="22289" x2="20140" y2= "19309" />
   <line class="fil3" x1="21007" y1="22289" x2="21007" y2= "19309" />
   <path class="fil3" d="M25940 18250c0,-6060 -4912,-10972 -10972,-10972 -6059,0 -10972,4912 -10972,10972 0,6060 4912,10972 10972,10972 6059,0 10972,-4912 10972,-10972z"/>
  </g>
 </g>
</svg>
