<?xml version="1.0" encoding="UTF-8"?>
<!DOCTYPE svg PUBLIC "-//W3C//DTD SVG 1.1//EN" "http://www.w3.org/Graphics/SVG/1.1/DTD/svg11.dtd">
<!-- Creator: CorelDRAW X8 -->
<svg xmlns="http://www.w3.org/2000/svg" xml:space="preserve" width="33.8666mm" height="33.8666mm" version="1.1" style="shape-rendering:geometricPrecision; text-rendering:geometricPrecision; image-rendering:optimizeQuality; fill-rule:evenodd; clip-rule:evenodd"
viewBox="0 0 3387 3387"
 xmlns:xlink="http://www.w3.org/1999/xlink">
 <defs>
  <style type="text/css">
   <![CDATA[
    .fil3 {fill:none}
    .fil1 {fill:black}
    .fil0 {fill:red}
    .fil2 {fill:white}
   ]]>
  </style>
 </defs>
 <g id="Camada_x0020_1">
  <metadata id="CorelCorpID_0Corel-Layer"/>
  <g id="_779486552">
   <path class="fil0" d="M1186 2080l0 -688c0,-176 93,-338 245,-425 152,-88 339,-88 491,0 151,87 245,249 245,425l0 688c0,271 -220,490 -491,490 -270,0 -490,-219 -490,-490zm-200 0l0 -344 100 0 0 344c0,326 264,590 590,590 327,0 591,-264 591,-590l0 -344 100 0 0 344c0,362 -279,662 -641,689l0 1 0 259c677,-26 1217,-583 1217,-1265 0,-700 -567,-1267 -1267,-1267 -699,0 -1266,567 -1266,1267 0,682 540,1239 1216,1265l0 -259 0 -1c-361,-27 -640,-327 -640,-689z"/>
   <path class="fil1" d="M1323 2080l0 -688c0,-127 68,-243 177,-306 109,-63 244,-63 353,0 109,63 176,179 176,306l0 688c0,195 -158,353 -353,353 -194,0 -353,-158 -353,-353zm844 0l0 -688c0,-176 -94,-338 -245,-425 -152,-88 -339,-88 -491,0 -152,87 -245,249 -245,425l0 688c0,271 220,490 490,490 271,0 491,-219 491,-490z"/>
   <path class="fil2" d="M2267 2080c0,326 -264,590 -591,590 -326,0 -590,-264 -590,-590l0 -344 -100 0 0 344c0,362 279,662 640,689l0 1 0 259c17,1 34,1 50,1 17,0 34,0 50,-1l0 -259 0 -1c362,-27 641,-327 641,-689l0 -344 -100 0 0 344z"/>
   <path class="fil2" d="M2029 2080l0 -688c0,-127 -67,-243 -176,-306 -109,-63 -244,-63 -353,0 -109,63 -177,179 -177,306l0 688c0,195 159,353 353,353 195,0 353,-158 353,-353z"/>
  </g>
  <g id="_325864704">
   <path class="fil3" d="M1323 2080c0,195 159,353 353,353 195,0 353,-158 353,-353"/>
   <path class="fil3" d="M1186 2080c0,271 220,490 490,490 271,0 491,-219 491,-490"/>
   <path class="fil3" d="M1086 2080c0,326 264,590 590,590 327,0 591,-264 591,-590"/>
   <path class="fil3" d="M1726 2769c362,-27 641,-327 641,-689"/>
   <path class="fil3" d="M986 2080c0,362 279,662 640,689"/>
   <path class="fil3" d="M2029 1392c0,-127 -67,-243 -176,-306 -109,-63 -244,-63 -353,0 -109,63 -177,179 -177,306"/>
   <path class="fil3" d="M2167 1392c0,-176 -94,-338 -245,-425 -152,-88 -339,-88 -491,0 -152,87 -245,249 -245,425"/>
   <line class="fil3" x1="2029" y1="1392" x2="2029" y2= "2080" />
   <line class="fil3" x1="2167" y1="1392" x2="2167" y2= "2080" />
   <line class="fil3" x1="1323" y1="1392" x2="1323" y2= "2080" />
   <line class="fil3" x1="1186" y1="1392" x2="1186" y2= "2080" />
   <polyline class="fil3" points="1626,2769 1626,2770 1626,3030 "/>
   <polyline class="fil3" points="1726,2769 1726,2770 1726,3030 "/>
   <line class="fil3" x1="1086" y1="1736" x2="986" y2= "1736" />
   <line class="fil3" x1="2267" y1="1736" x2="2367" y2= "1736" />
   <line class="fil3" x1="1726" y1="3030" x2="1626" y2= "3030" />
   <line class="fil3" x1="986" y1="2080" x2="986" y2= "1736" />
   <line class="fil3" x1="1086" y1="2080" x2="1086" y2= "1736" />
   <line class="fil3" x1="2267" y1="2080" x2="2267" y2= "1736" />
   <line class="fil3" x1="2367" y1="2080" x2="2367" y2= "1736" />
   <path class="fil3" d="M2937 1613c0,-699 -568,-1266 -1267,-1266 -700,0 -1267,567 -1267,1266 0,700 567,1267 1267,1267 699,0 1267,-567 1267,-1267z"/>
  </g>
 </g>
</svg>
